Coordinates
nRows=7
nColumns=24

# SIMM Motion File Header:
name Coordinates
datacolumns 24
datarows 7
otherdata 1
range 0.85799999999999998000 0.86399999999999999000
endheader
time	pelvis_tx	pelvis_ty	pelvis_tz	pelvis_tilt	pelvis_list	pelvis_rotation	hip_flexion_r	hip_adduction_r	hip_rotation_r	knee_angle_r	ankle_angle_r	subtalar_angle_r	mtp_angle_r	hip_flexion_l	hip_adduction_l	hip_rotation_l	knee_angle_l	ankle_angle_l	subtalar_angle_l	mtp_angle_l	lumbar_extension	lumbar_bending	lumbar_rotation
      0.85799999999999998000	      1.64980078861770170000	      0.93173799770778343000	     -0.31619871632073204000	     -3.22482223428858550000	      2.74819380813060830000	      2.04275360221304460000	     27.92707175758822700000	     -6.04271020279346160000	      6.18903914559560330000	     -9.13857551165398440000	    -13.79848150846467200000	     -0.00000000000001242192	      0.00000000000001410193	     -5.49699731371077680000	      7.98719386898635000000	      9.71543764600199640000	     -3.63995475235657300000	     12.11689891633649200000	      0.00000000000008779620	     -0.00000000000011350771	     -0.28436633704126252000	     -1.18227173150185800000	     -0.72070054001915906000
      0.85899999999999999000	      1.65025538440797680000	      0.93166243857170994000	     -0.31619687099943389000	     -3.23067625501162460000	      2.74666010603981330000	      2.05198861603463410000	     27.91312123213907300000	     -6.04634371144623550000	      6.19701841982673680000	     -8.98121631334606190000	    -13.97198882635713000000	     -0.00000000000001241184	      0.00000000000001418804	     -5.51180516320812060000	      7.98584346840592030000	      9.70680799834167910000	     -3.65593270363872060000	     12.14832220016810800000	      0.00000000000008790902	     -0.00000000000011307355	     -0.27510398225673072000	     -1.17719227097575140000	     -0.71264562360495520000
      0.85999999999999999000	      1.65071037181453350000	      0.93158665410425434000	     -0.31619474679375431000	     -3.23661484990667250000	      2.74509026414947410000	      2.06121661313371660000	     27.89919928250261100000	     -6.04988972446985060000	      6.20548909542635310000	     -8.82438958409624700000	    -14.14595091365489500000	     -0.00000000000001240246	      0.00000000000001427385	     -5.52647167206750290000	      7.98446406106081860000	      9.69830026127295140000	     -3.67202439156259080000	     12.18030048366281700000	      0.00000000000008802687	     -0.00000000000011266503	     -0.26574949734179687000	     -1.17208388407390180000	     -0.70456282731041420000
      0.86099999999999999000	      1.65116574163270040000	      0.93151064887746227000	     -0.31619236157721159000	     -3.24264379014855210000	      2.74350077953941080000	      2.07045094949806740000	     27.88532210031900100000	     -6.05337584817197970000	      6.21441580271332050000	     -8.66811588830808690000	    -14.32037840683663000000	     -0.00000000000001239469	      0.00000000000001436028	     -5.54099222639808800000	      7.98307044118467780000	      9.68994286701734890000	     -3.68822166979690640000	     12.21238938376841400000	      0.00000000000008814775	     -0.00000000000011226393	     -0.25629892120746606000	     -1.16696578465641480000	     -0.69648471212339713000
      0.86199999999999999000	      1.65162225868569810000	      0.93143398137266054000	     -0.31618919332807938000	     -3.24894376643092730000	      2.74185236677017570000	      2.07970430365822300000	     27.87157922049396000000	     -6.05668230390964980000	      6.22471060506233620000	     -8.51350129290489120000	    -14.49620211767027000000	     -0.00000000000001239173	      0.00000000000001444858	     -5.55507491714228150000	      7.98163418371541680000	      9.68203650120111450000	     -3.70473571896255740000	     12.24481013370667300000	      0.00000000000008827772	     -0.00000000000011188508	     -0.24656007141494479000	     -1.16181854769201530000	     -0.68842064025895133000
      0.86299999999999999000	      1.65207877573869610000	      0.93135731386785880000	     -0.31618602507894716000	     -3.25524374271330250000	      2.74020395400094060000	      2.08895765781837860000	     27.85783634066891800000	     -6.05998875964732080000	      6.23500540741135280000	     -8.35888669750169380000	    -14.67202582850391000000	     -0.00000000000001238877	      0.00000000000001453688	     -5.56915760788647420000	      7.98019792624615580000	      9.67413013538488190000	     -3.72124976812820840000	     12.27723088364493100000	      0.00000000000008840769	     -0.00000000000011150623	     -0.23682122162242356000	     -1.15667131072761610000	     -0.68035656839450565000
      0.86399999999999999000	      1.65253631419692780000	      0.93128008558633935000	     -0.31618218412819366000	     -3.26178419726382350000	      2.73852845752407290000	      2.09825207216584260000	     27.84422997392987000000	     -6.06318077941363680000	      6.24644440429586020000	     -8.20581155895380650000	    -14.84902577701874700000	     -0.00000000000001238758	      0.00000000000001462027	     -5.58285423183575610000	      7.97874312735820900000	      9.66668602231930580000	     -3.73803334744556670000	     12.30888603512129900000	      0.00000000000008853982	     -0.00000000000011110944	     -0.22683187974610497000	     -1.15152664859310930000	     -0.67237480637080971000
